<svg width="18" height="12" viewBox="0 0 18 12" fill="none" xmlns="http://www.w3.org/2000/svg">
<path opacity="0.3" d="M16.2498 0.576039H11.6905V1.84401H16.2678L16.2498 0.576039ZM15.2876 9.29894C14.9417 9.52812 14.5332 9.64437 14.1185 9.63167C13.844 9.66029 13.5665 9.63193 13.3035 9.54837C13.0404 9.46482 12.7974 9.32786 12.5898 9.14607C12.2058 8.71071 12.0059 8.14325 12.0322 7.56335H17.9854C18.0283 6.95954 17.9767 6.35273 17.8325 5.76482C17.693 5.20549 17.4489 4.67763 17.1131 4.20908C16.7751 3.75459 16.3385 3.38258 15.8361 3.12097C15.2772 2.84538 14.6607 2.70667 14.0376 2.7163C13.4515 2.71201 12.8706 2.82514 12.329 3.04903C11.833 3.2581 11.3836 3.5638 11.007 3.9483C10.6315 4.34048 10.3407 4.80576 10.1527 5.31518C9.95103 5.86513 9.85049 6.44704 9.85598 7.03278C9.84672 7.62685 9.94419 8.21775 10.1437 8.77737C10.3132 9.28413 10.5823 9.75191 10.9351 10.1532C11.3001 10.5473 11.7487 10.8545 12.248 11.0525C12.8048 11.2646 13.3969 11.3684 13.9926 11.3583C14.8284 11.3843 15.6536 11.1655 16.3667 10.7288C17.0869 10.217 17.6055 9.46939 17.8325 8.6155H15.8451C15.7387 8.89799 15.5429 9.13798 15.2876 9.29894ZM12.2031 5.59396C12.2731 5.36975 12.3892 5.1627 12.5441 4.98613C12.699 4.80956 12.8892 4.66739 13.1023 4.56879C13.3847 4.44171 13.6921 4.38022 14.0016 4.38894C14.2252 4.36984 14.4502 4.39933 14.6613 4.47539C14.8724 4.55145 15.0646 4.67228 15.2246 4.82958C15.5302 5.20361 15.7262 5.65492 15.7911 6.13352H12.0592C12.0737 5.95077 12.1069 5.76998 12.1581 5.59396H12.2031ZM7.44594 5.16231C7.90363 4.97172 8.30133 4.66102 8.597 4.26304C8.86878 3.84039 9.0038 3.34429 8.98369 2.84219C9.00132 2.38432 8.91203 1.92864 8.7229 1.51128C8.56401 1.1497 8.30895 0.838649 7.9855 0.61201C7.64257 0.376377 7.25314 0.216928 6.84343 0.14439C6.35856 0.0426951 5.86401 -0.00555381 5.36863 0.000507507H0V11.3133H5.48554C5.98615 11.3137 6.48477 11.2502 6.96933 11.1245C7.42862 11.0056 7.86376 10.8079 8.25528 10.5399C8.63454 10.2771 8.94336 9.92503 9.15455 9.51477C9.38828 9.05595 9.50271 8.54566 9.48728 8.03097C9.50431 7.39316 9.32541 6.76545 8.9747 6.23244C8.59753 5.6964 8.03813 5.31601 7.40098 5.16231H7.44594ZM2.49097 1.93393H4.82008C5.03405 1.93367 5.24766 1.95172 5.45856 1.98789C5.65275 2.01667 5.83925 2.08393 6.00711 2.18573C6.16929 2.27747 6.3007 2.41514 6.3848 2.58141C6.48896 2.78079 6.53859 3.00415 6.52869 3.22888C6.54544 3.42244 6.51584 3.6172 6.44234 3.79704C6.36884 3.97688 6.25356 4.13662 6.10603 4.26304C5.7842 4.48429 5.3991 4.59477 5.00892 4.57778H2.49097V1.93393ZM6.84343 8.62449C6.75104 8.80777 6.61132 8.96301 6.43876 9.07412C6.25918 9.18582 6.06131 9.26497 5.85424 9.30793C5.62407 9.35945 5.38863 9.3836 5.15281 9.37987H2.455V6.2774H5.15281C5.61576 6.25713 6.07295 6.3864 6.45675 6.6461C6.63014 6.8017 6.76445 6.99594 6.84881 7.2131C6.93318 7.43026 6.96522 7.66424 6.94235 7.89608C6.96666 8.14328 6.93279 8.39273 6.84343 8.62449Z" fill="white"/>
</svg>
