<svg width="21" height="17" viewBox="0 0 21 17" fill="none" xmlns="http://www.w3.org/2000/svg">
<path opacity="0.3" d="M20.8829 2.03671C20.0981 2.37721 19.2681 2.60229 18.4188 2.70497C19.3148 2.16966 19.9863 1.32751 20.3087 0.334754C19.4666 0.836011 18.5449 1.18918 17.5834 1.3789C16.9408 0.682008 16.0851 0.218119 15.1504 0.0599881C14.2157 -0.0981428 13.255 0.0584292 12.4189 0.505148C11.5828 0.951866 10.9186 1.66346 10.5305 2.52834C10.1424 3.39321 10.0523 4.36244 10.2744 5.28401C8.57185 5.1979 6.90645 4.75458 5.3864 3.98286C3.86634 3.21114 2.52563 2.12828 1.45137 0.80462C1.07457 1.46261 0.876582 2.20777 0.877084 2.96601C0.875748 3.67016 1.04855 4.36372 1.38011 4.98493C1.71166 5.60615 2.19168 6.13574 2.77743 6.52655C2.09662 6.50802 1.43036 6.32534 0.835318 5.99403V6.04624C0.840421 7.03285 1.18615 7.98741 1.81401 8.74846C2.44188 9.50951 3.31335 10.0303 4.281 10.2228C3.90851 10.3362 3.52178 10.396 3.13244 10.4003C2.86294 10.3972 2.5941 10.3727 2.32845 10.3272C2.60401 11.1759 3.13727 11.9176 3.85403 12.4491C4.57078 12.9806 5.43539 13.2754 6.32753 13.2926C4.82104 14.478 2.96108 15.125 1.04415 15.1303C0.695126 15.1315 0.346381 15.1105 0 15.0677C1.95718 16.3314 4.238 17.0022 6.56769 16.9993C8.17535 17.016 9.77023 16.7122 11.2592 16.1056C12.7481 15.4991 14.1012 14.6019 15.2395 13.4665C16.3779 12.3311 17.2785 10.9802 17.8889 9.49287C18.4993 8.0055 18.8072 6.41141 18.7947 4.8037C18.7947 4.6262 18.7947 4.43825 18.7947 4.25031C19.614 3.63928 20.3207 2.89023 20.8829 2.03671Z" fill="white"/>
</svg>
